<svg width="32" height="32" viewBox="0 0 32 32" fill="none" xmlns="http://www.w3.org/2000/svg">
<path fill-rule="evenodd" clip-rule="evenodd" d="M8 10.8193V21.626C9.05367 21.2224 10.2477 21 11.5 21C12.7523 21 13.9463 21.2224 15 21.626V10.8193C14.0605 10.3166 12.8481 10 11.5 10C10.1519 10 8.9395 10.3166 8 10.8193ZM17 10.8193V21.626C18.0537 21.2224 19.2477 21 20.5 21C21.7523 21 22.9463 21.2224 24 21.626V10.8193C23.0605 10.3166 21.8481 10 20.5 10C19.1519 10 17.9395 10.3166 17 10.8193ZM16 9.0863C14.7327 8.39454 13.1681 8 11.5 8C9.57992 8 7.7969 8.52277 6.44662 9.41985C6.16766 9.60518 6 9.91786 6 10.2528V23.2528C6 23.6213 6.20267 23.9599 6.52744 24.1341C6.85221 24.3082 7.24643 24.2896 7.55338 24.0857C8.53889 23.431 9.92709 23 11.5 23C13.0729 23 14.4611 23.431 15.4466 24.0857C15.7819 24.3085 16.2181 24.3085 16.5534 24.0857C17.5389 23.431 18.9271 23 20.5 23C22.0729 23 23.4611 23.431 24.4466 24.0857C24.7536 24.2896 25.1478 24.3082 25.4726 24.1341C25.7973 23.9599 26 23.6213 26 23.2528V10.2528C26 9.91786 25.8323 9.60518 25.5534 9.41985C24.2031 8.52277 22.4201 8 20.5 8C18.8319 8 17.2673 8.39454 16 9.0863Z" fill="#536471"/>
</svg>
