<svg width="32" height="32" viewBox="0 0 32 32" fill="none" xmlns="http://www.w3.org/2000/svg">
<path fill-rule="evenodd" clip-rule="evenodd" d="M13 9C13 7.34315 14.3431 6 16 6C17.6569 6 19 7.34315 19 9H23C24.6569 9 26 10.3431 26 12V21C26 22.6569 24.6569 24 23 24H9C7.34315 24 6 22.6569 6 21V12C6 10.3431 7.34315 9 9 9H13ZM13.1707 11H9C8.44772 11 8 11.4477 8 12V21C8 21.5523 8.44772 22 9 22H23C23.5523 22 24 21.5523 24 21V12C24 11.4477 23.5523 11 23 11H18.8293C18.4175 12.1652 17.3062 13 16 13C14.6938 13 13.5825 12.1652 13.1707 11ZM16 8C15.4477 8 15 8.44772 15 9V10C15 10.5523 15.4477 11 16 11C16.5523 11 17 10.5523 17 10V9C17 8.44772 16.5523 8 16 8ZM13 15C12.4477 15 12 15.4477 12 16C12 16.5523 12.4477 17 13 17C13.5523 17 14 16.5523 14 16C14 15.4477 13.5523 15 13 15ZM15.4002 17.8C15.7768 17.2986 16 16.6754 16 16C16 14.3431 14.6569 13 13 13C11.3431 13 10 14.3431 10 16C10 16.6754 10.2232 17.2986 10.5998 17.8C9.9753 18.2692 9.49285 18.9169 9.22781 19.6668C9.04377 20.1875 9.31669 20.7588 9.83741 20.9428C10.3581 21.1269 10.9294 20.854 11.1135 20.3332C11.3885 19.5551 12.1307 19 13 19C13.8692 19 14.6114 19.5551 14.8864 20.3332C15.0704 20.854 15.6418 21.1269 16.1625 20.9428C16.6832 20.7588 16.9561 20.1875 16.7721 19.6668C16.5071 18.9169 16.0246 18.2693 15.4002 17.8ZM18 15C18 14.4477 18.4477 14 19 14H22C22.5523 14 23 14.4477 23 15C23 15.5523 22.5523 16 22 16H19C18.4477 16 18 15.5523 18 15ZM18 19C18 18.4477 18.4477 18 19 18H21C21.5523 18 22 18.4477 22 19C22 19.5523 21.5523 20 21 20H19C18.4477 20 18 19.5523 18 19Z" fill="#536471"/>
</svg>
