<svg width="32" height="32" viewBox="0 0 32 32" fill="none" xmlns="http://www.w3.org/2000/svg">
<path fill-rule="evenodd" clip-rule="evenodd" d="M12.1707 8C12.5825 6.83481 13.6938 6 15 6H17C18.3062 6 19.4175 6.83481 19.8293 8H21C22.6569 8 24 9.34315 24 11V23C24 24.6569 22.6569 26 21 26H11C9.34315 26 8 24.6569 8 23V11C8 9.34315 9.34315 8 11 8H12.1707ZM12.1707 10H11C10.4477 10 10 10.4477 10 11V23C10 23.5523 10.4477 24 11 24H21C21.5523 24 22 23.5523 22 23V11C22 10.4477 21.5523 10 21 10H19.8293C19.4175 11.1652 18.3062 12 17 12H15C13.6938 12 12.5825 11.1652 12.1707 10ZM15 8C14.4477 8 14 8.44772 14 9C14 9.55228 14.4477 10 15 10H17C17.5523 10 18 9.55228 18 9C18 8.44772 17.5523 8 17 8H15ZM12 16C12 15.4477 12.4477 15 13 15H13.01C13.5623 15 14.01 15.4477 14.01 16C14.01 16.5523 13.5623 17 13.01 17H13C12.4477 17 12 16.5523 12 16ZM15 16C15 15.4477 15.4477 15 16 15H19C19.5523 15 20 15.4477 20 16C20 16.5523 19.5523 17 19 17H16C15.4477 17 15 16.5523 15 16ZM12 20C12 19.4477 12.4477 19 13 19H13.01C13.5623 19 14.01 19.4477 14.01 20C14.01 20.5523 13.5623 21 13.01 21H13C12.4477 21 12 20.5523 12 20ZM15 20C15 19.4477 15.4477 19 16 19H19C19.5523 19 20 19.4477 20 20C20 20.5523 19.5523 21 19 21H16C15.4477 21 15 20.5523 15 20Z" fill="#536471"/>
</svg>
