<svg width="32" height="32" viewBox="0 0 32 32" fill="none" xmlns="http://www.w3.org/2000/svg">
<path fill-rule="evenodd" clip-rule="evenodd" d="M7 10C7 9.44772 7.44772 9 8 9H24C24.5523 9 25 9.44772 25 10C25 10.5523 24.5523 11 24 11H8C7.44772 11 7 10.5523 7 10ZM7 16C7 15.4477 7.44772 15 8 15H24C24.5523 15 25 15.4477 25 16C25 16.5523 24.5523 17 24 17H8C7.44772 17 7 16.5523 7 16ZM7 22C7 21.4477 7.44772 21 8 21H24C24.5523 21 25 21.4477 25 22C25 22.5523 24.5523 23 24 23H8C7.44772 23 7 22.5523 7 22Z" fill="#536471"/>
</svg>
