<svg width="32" height="32" viewBox="0 0 32 32" fill="none" xmlns="http://www.w3.org/2000/svg">
<path fill-rule="evenodd" clip-rule="evenodd" d="M13.0185 8.66519C13.185 7.16592 14.4563 6 16 6C17.5437 6 18.815 7.16592 18.9815 8.6652C21.3554 9.78439 23 12.1991 23 15V18.1585C23 18.4321 23.1087 18.6945 23.3022 18.888L24.7071 20.2929C24.9931 20.5789 25.0787 21.009 24.9239 21.3827C24.7691 21.7564 24.4045 22 24 22L20 22C20 24.2091 18.2091 26 16 26C13.7909 26 12 24.2091 12 22L8 22C7.59554 22 7.2309 21.7564 7.07612 21.3827C6.92134 21.009 7.00689 20.5789 7.29289 20.2929L8.69782 18.888C8.8913 18.6945 9 18.4321 9 18.1585V15C9 12.1991 10.6446 9.78439 13.0185 8.66519ZM14 22C14 23.1046 14.8954 24 16 24C17.1046 24 18 23.1046 18 22H14ZM16 8C15.4477 8 15 8.44772 15 9V9.34142C15 9.76523 14.7328 10.143 14.3332 10.2843C12.3899 10.9711 11 12.8245 11 15V18.1585C11 18.8277 10.7787 19.4742 10.3766 20H21.6234C21.2213 19.4742 21 18.8277 21 18.1585V15C21 12.8245 19.6101 10.9711 17.6668 10.2843C17.2672 10.143 17 9.76523 17 9.34142V9C17 8.44772 16.5523 8 16 8Z" fill="#536471"/>
</svg>
