<svg width="32" height="32" viewBox="0 0 32 32" fill="none" xmlns="http://www.w3.org/2000/svg">
<path fill-rule="evenodd" clip-rule="evenodd" d="M24.7071 10.2929C25.0976 10.6834 25.0976 11.3166 24.7071 11.7071L20.7071 15.7071C20.3166 16.0976 19.6834 16.0976 19.2929 15.7071C18.9024 15.3166 18.9024 14.6834 19.2929 14.2929L21.5858 12L12 12C11.4477 12 11 11.5523 11 11C11 10.4477 11.4477 10 12 10L21.5858 10L19.2929 7.70711C18.9024 7.31658 18.9024 6.68342 19.2929 6.29289C19.6834 5.90237 20.3166 5.90237 20.7071 6.29289L24.7071 10.2929ZM10.4142 20L20 20C20.5523 20 21 20.4477 21 21C21 21.5523 20.5523 22 20 22L10.4142 22L12.7071 24.2929C13.0976 24.6834 13.0976 25.3166 12.7071 25.7071C12.3166 26.0976 11.6834 26.0976 11.2929 25.7071L7.29289 21.7071C6.90237 21.3166 6.90237 20.6834 7.29289 20.2929L11.2929 16.2929C11.6834 15.9024 12.3166 15.9024 12.7071 16.2929C13.0976 16.6834 13.0976 17.3166 12.7071 17.7071L10.4142 20Z" fill="#536471"/>
</svg>
