<svg width="32" height="32" viewBox="0 0 32 32" fill="none" xmlns="http://www.w3.org/2000/svg">
<path fill-rule="evenodd" clip-rule="evenodd" d="M11 11C11 8.23858 13.2386 6 16 6C18.7614 6 21 8.23858 21 11V12H23C23.5201 12 23.9534 12.3987 23.9965 12.917L24.9965 24.917C25.0198 25.1956 24.9252 25.4713 24.7359 25.6771C24.5465 25.8829 24.2797 26 24 26H8C7.72035 26 7.45347 25.8829 7.26412 25.6771C7.07476 25.4713 6.98023 25.1956 7.00345 24.917L8.00345 12.917C8.04664 12.3987 8.47991 12 9 12H11V11ZM11 14V15C11 15.5523 11.4477 16 12 16C12.5523 16 13 15.5523 13 15V14H19V15C19 15.5523 19.4477 16 20 16C20.5523 16 21 15.5523 21 15V14H22.0799L22.9132 24H9.0868L9.92013 14H11ZM19 12H13V11C13 9.34315 14.3431 8 16 8C17.6569 8 19 9.34315 19 11V12Z" fill="#536471"/>
</svg>
