<svg width="32" height="32" viewBox="0 0 32 32" fill="none" xmlns="http://www.w3.org/2000/svg">
<path fill-rule="evenodd" clip-rule="evenodd" d="M6 11C6 9.34315 7.34315 8 9 8H23C24.6569 8 26 9.34315 26 11V14C26 14.5523 25.5523 15 25 15C24.4477 15 24 15.4477 24 16C24 16.5523 24.4477 17 25 17C25.5523 17 26 17.4477 26 18V21C26 22.6569 24.6569 24 23 24H9C7.34315 24 6 22.6569 6 21V18C6 17.4477 6.44772 17 7 17C7.55228 17 8 16.5523 8 16C8 15.4477 7.55228 15 7 15C6.44772 15 6 14.5523 6 14V11ZM20 22V21C20 20.4477 19.5523 20 19 20C18.4477 20 18 20.4477 18 21V22H9C8.44772 22 8 21.5523 8 21V18.8293C9.16519 18.4175 10 17.3062 10 16C10 14.6938 9.16519 13.5825 8 13.1707V11C8 10.4477 8.44772 10 9 10H18V11C18 11.5523 18.4477 12 19 12C19.5523 12 20 11.5523 20 11V10H23C23.5523 10 24 10.4477 24 11V13.1707C22.8348 13.5825 22 14.6938 22 16C22 17.3062 22.8348 18.4175 24 18.8293V21C24 21.5523 23.5523 22 23 22H20ZM19 14C19.5523 14 20 14.4477 20 15V17C20 17.5523 19.5523 18 19 18C18.4477 18 18 17.5523 18 17V15C18 14.4477 18.4477 14 19 14Z" fill="#536471"/>
</svg>
