<svg width="32" height="32" viewBox="0 0 32 32" fill="none" xmlns="http://www.w3.org/2000/svg">
<path fill-rule="evenodd" clip-rule="evenodd" d="M10 9C9.44772 9 9 9.44771 9 10V16H10.5858C11.1162 16 11.6249 16.2107 12 16.5858L14.4142 19H17.5858L20 16.5858C20.3751 16.2107 20.8838 16 21.4142 16H23V10C23 9.44771 22.5523 9 22 9C21.4477 9 21 8.55228 21 8C21 7.44772 21.4477 7 22 7C23.6569 7 25 8.34314 25 10V22C25 23.6569 23.6569 25 22 25H10C8.34315 25 7 23.6569 7 22V10C7 8.34314 8.34315 7 10 7C10.5523 7 11 7.44772 11 8C11 8.55228 10.5523 9 10 9ZM9 18V22C9 22.5523 9.44772 23 10 23H22C22.5523 23 23 22.5523 23 22V18H21.4142L19 20.4142C18.6249 20.7893 18.1162 21 17.5858 21H14.4142C13.8838 21 13.3751 20.7893 13 20.4142L10.5858 18H9Z" fill="#536471"/>
<path fill-rule="evenodd" clip-rule="evenodd" d="M18 16C19.3255 16 20 15.3255 20 14V8C20 6.5 19.5 6 18 6H14C12.5 6 12 6.5 12 8V14C12 15.5 12.5 16 14 16H18ZM16 14C18 14 18 14 18 12V10C18 8 17.9986 8 15.9993 8C14 8 14 8 14 10C14 12 14 12 14 12C14 14 14 14 16 14Z" fill="#536471"/>
</svg>
