<svg width="424" height="97" viewBox="0 0 424 97" fill="none" xmlns="http://www.w3.org/2000/svg">
<path d="M40.0545 78.3237L40.0567 93.4587L0.0135133 93.4671L0.0113201 78.3321L12.2279 78.3295L12.2192 18.2647L0.00261611 18.2673L0.000422906 3.13227L40.0437 3.12385L40.0458 18.2588L27.3542 18.2615L27.3629 78.3264L40.0545 78.3237Z" fill="white"/>
<path d="M93.5144 22.5234C100.799 22.5219 107.473 24.8507 113.537 29.5098L113.533 3.24415L128.668 3.24096L128.681 93.5758L113.546 93.579L113.546 89.3032C107.8 93.9195 101.126 96.2285 93.525 96.2301C87.1905 96.2314 81.3987 94.5359 76.1496 91.1435C70.9005 87.7511 66.805 83.2499 63.8632 77.64C60.9214 71.9848 59.45 65.8994 59.449 59.3839C59.4481 52.8684 60.9177 46.805 63.8579 41.1939C66.7981 35.5827 70.8923 31.0798 76.1404 27.6852C81.3885 24.2453 87.1798 22.5247 93.5144 22.5234ZM93.5166 37.7263C88.4942 37.7273 84.0829 39.8096 80.2828 43.9731C76.528 48.0913 74.651 53.2272 74.6519 59.3807C74.6528 65.5795 76.5313 70.7598 80.2873 74.9217C84.0886 79.0384 88.5005 81.0962 93.5228 81.0951C98.5905 81.094 103.024 79.0344 106.824 74.9162C110.67 70.7527 112.592 65.5715 112.591 59.3727C112.59 53.2192 110.667 48.0841 106.82 43.9675C103.019 39.8056 98.5842 37.7252 93.5166 37.7263Z" fill="white"/>
<path d="M201.083 79.1043L207.532 92.8805C202.51 95.0986 197.307 96.2083 191.923 96.2094C185.272 96.2108 179.118 94.5832 173.461 91.3267C167.805 88.0248 163.325 83.5464 160.021 77.8912C156.717 72.2361 155.065 66.0603 155.064 59.3638C155.063 52.7126 156.714 46.5587 160.016 40.9022C163.318 35.2456 167.797 30.7653 173.452 27.4611C179.108 24.1569 185.261 22.5041 191.912 22.5027C198.609 22.5013 204.785 24.1515 210.441 27.4533C216.098 30.7551 220.555 35.2336 223.814 40.8887C227.117 46.5439 228.77 52.6971 228.771 59.3483L228.772 67.0176L171.625 67.0296C173.21 71.1467 175.834 74.517 179.5 77.1406C183.165 79.7641 187.305 81.0754 191.921 81.0744C195.043 81.0738 198.097 80.4171 201.083 79.1043ZM171.623 51.8946L212.209 51.8861C210.67 47.7237 208.046 44.3308 204.335 41.7073C200.624 39.0385 196.484 37.7046 191.914 37.7056C187.299 37.7065 183.137 39.0196 179.427 41.6446C175.762 44.2697 173.161 47.6864 171.623 51.8946Z" fill="white"/>
<path d="M266.837 93.5467L251.702 93.5499L251.697 59.3435C251.696 52.828 253.166 46.7646 256.106 41.1534C259.046 35.5422 263.141 31.0393 268.389 27.6448C273.682 24.2049 279.519 22.4843 285.898 22.483C292.233 22.4816 298.025 24.1998 303.274 27.6374C308.523 31.0298 312.596 35.531 315.492 41.141C318.434 46.7509 319.906 52.8137 319.906 59.3292L319.911 93.5356L304.776 93.5388L304.771 59.3323C304.771 53.1788 302.869 48.0437 299.068 43.9271C295.312 39.7652 290.923 37.6848 285.901 37.6858C280.833 37.6869 276.376 39.7692 272.531 43.9327C268.731 48.0509 266.831 53.1868 266.832 59.3403L266.837 93.5467Z" fill="white"/>
<path d="M353.345 3.19373L368.547 3.19054L368.55 24.0266L381.31 24.0239L381.312 38.7517L368.553 38.7544L368.56 93.5254L353.358 93.5286L353.35 38.7576L340.862 38.7602L340.86 24.0324L353.348 24.0298L353.345 3.19373Z" fill="white"/>
<path d="M407.155 24.0185L422.29 24.0153L422.3 93.5141L407.165 93.5172L407.155 24.0185ZM406.338 8.61219C406.338 6.21412 407.152 4.20047 408.781 2.57125C410.454 0.942023 412.468 0.127162 414.821 0.126667C417.173 0.126172 419.164 0.940193 420.794 2.56873C422.468 4.19725 423.305 6.21055 423.306 8.60862C423.306 10.9614 422.492 12.9525 420.863 14.5817C419.235 16.1657 417.221 16.9579 414.823 16.9584C412.425 16.9589 410.411 16.1675 408.782 14.5842C407.153 12.9557 406.338 10.965 406.338 8.61219Z" fill="white"/>
</svg>
