<svg width="424" height="97" viewBox="0 0 424 97" fill="none" xmlns="http://www.w3.org/2000/svg">
<path d="M40.0545 78.1988L40.0567 93.3338L0.0135133 93.3422L0.0113201 78.2072L12.2279 78.2047L12.2192 18.1398L0.00261611 18.1424L0.000422906 3.00739L40.0437 2.99898L40.0458 18.134L27.3542 18.1366L27.3629 78.2015L40.0545 78.1988Z" fill="#2A945F"/>
<path d="M93.5144 22.3985C100.799 22.397 107.473 24.7258 113.537 29.3849L113.533 3.11927L128.668 3.11609L128.681 93.4509L113.546 93.4541L113.546 89.1783C107.8 93.7946 101.126 96.1036 93.525 96.1052C87.1905 96.1065 81.3987 94.411 76.1496 91.0186C70.9005 87.6262 66.805 83.1251 63.8632 77.5151C60.9214 71.8599 59.45 65.7745 59.449 59.259C59.4481 52.7435 60.9177 46.6802 63.8579 41.069C66.7981 35.4578 70.8923 30.9549 76.1404 27.5603C81.3885 24.1204 87.1798 22.3999 93.5144 22.3985ZM93.5166 37.6014C88.4942 37.6024 84.0829 39.6847 80.2828 43.8482C76.528 47.9664 74.651 53.1023 74.6519 59.2558C74.6528 65.4546 76.5313 70.635 80.2873 74.7969C84.0886 78.9135 88.5005 80.9713 93.5228 80.9702C98.5905 80.9692 103.024 78.9095 106.824 74.7913C110.67 70.6278 112.592 65.4466 112.591 59.2479C112.59 53.0943 110.667 47.9592 106.82 43.8426C103.019 39.6807 98.5842 37.6003 93.5166 37.6014Z" fill="#2A945F"/>
<path d="M201.083 78.9794L207.532 92.7556C202.51 94.9738 197.307 96.0834 191.923 96.0845C185.272 96.0859 179.118 94.4583 173.461 91.2018C167.805 87.9 163.325 83.4215 160.021 77.7664C156.717 72.1112 155.065 65.9354 155.064 59.2389C155.063 52.5877 156.714 46.4338 160.016 40.7773C163.318 35.1208 167.797 30.6404 173.452 27.3362C179.108 24.032 185.261 22.3792 191.912 22.3778C198.609 22.3764 204.785 24.0266 210.441 27.3284C216.098 30.6303 220.555 35.1087 223.814 40.7639C227.117 46.419 228.77 52.5722 228.771 59.2234L228.772 66.8927L171.625 66.9048C173.21 71.0219 175.834 74.3922 179.5 77.0157C183.165 79.6392 187.305 80.9505 191.921 80.9495C195.043 80.9489 198.097 80.2922 201.083 78.9794ZM171.623 51.7698L212.209 51.7612C210.67 47.5989 208.046 44.2059 204.335 41.5824C200.624 38.9136 196.484 37.5797 191.914 37.5807C187.299 37.5817 183.137 38.8947 179.427 41.5198C175.762 44.1448 173.161 47.5615 171.623 51.7698Z" fill="#2A945F"/>
<path d="M266.837 93.4219L251.702 93.425L251.697 59.2186C251.696 52.7031 253.166 46.6398 256.106 41.0286C259.046 35.4174 263.141 30.9145 268.389 27.5199C273.682 24.08 279.519 22.3594 285.898 22.3581C292.233 22.3568 298.025 24.0749 303.274 27.5125C308.523 30.9049 312.596 35.4061 315.492 41.0161C318.434 46.626 319.906 52.6888 319.906 59.2043L319.911 93.4107L304.776 93.4139L304.771 59.2075C304.771 53.0539 302.869 47.9188 299.068 43.8022C295.312 39.6403 290.923 37.5599 285.901 37.5609C280.833 37.562 276.376 39.6443 272.531 43.8078C268.731 47.926 266.831 53.0619 266.832 59.2154L266.837 93.4219Z" fill="#2A945F"/>
<path d="M353.345 3.06886L368.547 3.06566L368.55 23.9017L381.31 23.899L381.312 38.6268L368.553 38.6295L368.56 93.4005L353.358 93.4037L353.35 38.6327L340.862 38.6353L340.86 23.9075L353.348 23.9049L353.345 3.06886Z" fill="#2A945F"/>
<path d="M407.155 23.8936L422.29 23.8904L422.3 93.3892L407.165 93.3924L407.155 23.8936ZM406.338 8.48731C406.338 6.08924 407.152 4.07559 408.781 2.44637C410.454 0.817146 412.468 0.00228372 414.821 0.00178913C417.173 0.00129455 419.164 0.815315 420.794 2.44385C422.468 4.07237 423.305 6.08567 423.306 8.48374C423.306 10.8366 422.492 12.8276 420.863 14.4568C419.235 16.0408 417.221 16.833 414.823 16.8335C412.425 16.834 410.411 16.0426 408.782 14.4593C407.153 12.8308 406.338 10.8401 406.338 8.48731Z" fill="#2A945F"/>
</svg>
